<svg width="65" height="18" viewBox="0 0 65 18" fill="none" xmlns="http://www.w3.org/2000/svg">
<path d="M0.269531 14.1826V3.82812H2.21832V14.1826H0.269531Z" fill="#F2F2F2"/>
<path d="M10.4483 14.1826L6.49468 7.82734V14.1826H4.5459V3.82812H6.28435L10.2381 10.1688V3.82812H12.1869V14.1826H10.4483Z" fill="#F2F2F2"/>
<path d="M18.327 5.63138V14.1826H16.3782V5.63138H13.7705V3.82812H20.9347V5.63138H18.327Z" fill="#F2F2F2"/>
<path d="M22.5195 14.1826V3.82812H29.095V5.63138H24.4684V8.06001H28.4081V9.86337H24.4684V12.3793H29.095V14.1827H22.5195V14.1826Z" fill="#F2F2F2"/>
<path d="M36.3017 14.1826L34.3528 10.0524H32.9507V14.1826H31.002V3.82812H34.9136C35.4183 3.82812 35.8716 3.91312 36.2734 4.08262C36.6753 4.25241 37.0166 4.48034 37.297 4.76612C37.5775 5.05219 37.7899 5.38665 37.9349 5.76959C38.0797 6.15274 38.1522 6.56214 38.1522 6.99849C38.1522 7.36705 38.1031 7.69648 38.0049 7.98738C37.9068 8.27829 37.7735 8.53781 37.6054 8.76544C37.4371 8.99337 37.2431 9.18711 37.0235 9.34704C36.8038 9.50708 36.5725 9.63061 36.3296 9.71802L38.5587 14.1827H36.3017V14.1826ZM36.2034 6.99839C36.2034 6.59121 36.0748 6.26168 35.8179 6.0095C35.5607 5.75752 35.2172 5.63138 34.7873 5.63138H32.9507V8.3654H34.7873C35.2172 8.3654 35.5607 8.23956 35.8179 7.98728C36.0748 7.73531 36.2034 7.40568 36.2034 6.99839Z" fill="#F2F2F2"/>
<path d="M47.3352 7.05653C47.3352 7.49279 47.2604 7.90731 47.1109 8.29991C46.9613 8.69251 46.744 9.03683 46.459 9.33246C46.1738 9.62829 45.8281 9.86105 45.4214 10.0305C45.0149 10.2003 44.5545 10.285 44.0405 10.285H42.1197V14.1825H40.1709V3.82812H44.0404C44.5544 3.82812 45.0148 3.91312 45.4214 4.08262C45.828 4.25241 46.1737 4.48507 46.4589 4.7807C46.7438 5.07654 46.9612 5.42055 47.1108 5.81325C47.2603 6.20585 47.3352 6.62028 47.3352 7.05653ZM45.3863 7.05653C45.3863 6.63003 45.2578 6.28572 45.0008 6.02398C44.7436 5.76215 44.3909 5.63128 43.9422 5.63128H42.1196V8.46719H43.9422C44.3909 8.46719 44.7436 8.33884 45.0008 8.08173C45.2578 7.82503 45.3863 7.48333 45.3863 7.05653Z" fill="#F2F2F2"/>
<path d="M54.2742 14.1826L52.3253 10.0524H50.9234V14.1826H48.9746V3.82812H52.8862C53.391 3.82812 53.8442 3.91312 54.2461 4.08262C54.648 4.25241 54.9892 4.48034 55.2697 4.76612C55.5501 5.05219 55.7626 5.38665 55.9076 5.76959C56.0523 6.15274 56.1249 6.56214 56.1249 6.99849C56.1249 7.36705 56.0758 7.69648 55.9776 7.98738C55.8794 8.27829 55.7462 8.53781 55.578 8.76544C55.4098 8.99337 55.2158 9.18711 54.9962 9.34704C54.7765 9.50708 54.5452 9.63061 54.3023 9.71802L56.5314 14.1827H54.2742V14.1826ZM54.1761 6.99839C54.1761 6.59121 54.0475 6.26168 53.7905 6.0095C53.5333 5.75752 53.1899 5.63138 52.76 5.63138H50.9234V8.3654H52.76C53.1899 8.3654 53.5333 8.23956 53.7905 7.98728C54.0474 7.73531 54.1761 7.40568 54.1761 6.99839Z" fill="#F2F2F2"/>
<path d="M61.9571 5.63138V14.1826H60.0082V5.63138H57.4004V3.82812H64.5647V5.63138H61.9571Z" fill="#F2F2F2"/>
<path d="M0 1H64.5846" stroke="#F2F2F2" stroke-width="1.10811"/>
<path d="M0 17H64.5846" stroke="#F2F2F2" stroke-width="1.10811"/>
</svg>
